<?xml version="1.0" encoding="UTF-8"?>
<svg xmlns="http://www.w3.org/2000/svg" id="a" width="865.76" height="682.89" viewBox="0 0 865.76 682.89">
  <rect x="125.24" y="52.03" width="615.29" height="378.43" fill="#e6e7e8" stroke="#002346" stroke-miterlimit="10"></rect>
  <rect x="136.22" y="63.01" width="213.05" height="178.54" fill="#fff" stroke="#002346" stroke-miterlimit="10"></rect>
  <rect x="136.22" y="241.55" width="213.05" height="178.54" fill="#fff" stroke="#002346" stroke-miterlimit="10"></rect>
  <circle cx="157.7" cy="396.73" r="15.9" fill="#f69074" stroke="#002346" stroke-miterlimit="10"></circle>
  <polygon points="167.65 391.66 163.39 394.12 163.39 391.62 148.93 391.62 148.93 403.36 163.39 403.36 163.39 400.85 167.65 403.32 167.65 391.66" fill="#fff" stroke="#002346" stroke-miterlimit="10"></polygon>
  <rect x="562.32" y="99.39" width="167.24" height="320.1" fill="#fff" stroke="#002346" stroke-miterlimit="10"></rect>
  <rect x="562.32" y="63.01" width="167.24" height="36.39" fill="#f69074" stroke="#002346" stroke-miterlimit="10"></rect>
  <rect x="569.78" y="381.83" width="119.18" height="31.27" fill="#fff" stroke="#002346" stroke-miterlimit="10"></rect>
  <rect x="688.64" y="381.83" width="33.93" height="31.27" fill="#f69074" stroke="#002346" stroke-miterlimit="10"></rect>
  <rect x="349.27" y="63.01" width="213.05" height="178.54" fill="#fff" stroke="#002346" stroke-miterlimit="10"></rect>
  <path d="M562.32,241.98h-62.85v-27.38c.01-34.7,28.15-62.83,62.85-62.83h0v90.21Z" fill="#e6e7e8" stroke="#002346" stroke-miterlimit="10"></path>
  <path d="M547.32,244.24s-14.36-74-90.06-74-91.3,71.75-91.3,71.75l181.36,2.25Z" fill="#fbe493" stroke="#002346" stroke-miterlimit="10"></path>
  <path d="M473.86,171.65l-1.07-31.59h-31.26s-8,38.16,2.59,47.09,23.3-4.1,29.74-15.5Z" fill="#f1b2c0" stroke="#002346" stroke-miterlimit="10"></path>
  <rect x="349.27" y="241.55" width="213.05" height="178.54" fill="#fff" stroke="#002346" stroke-miterlimit="10"></rect>
  <path d="M478.86,553.5c-2.09,12.82-5.69,22.68-9,22.14s-5-11.26-2.92-24.08,7.07-22.43,10.35-21.89,3.69,11.01,1.57,23.83Z" fill="#f69074" stroke="#002346" stroke-miterlimit="10"></path>
  <path d="M457.03,569.19l17.29,4.66,12.06,3c4.93,.72,9.85-31,8.12-31.33-12.48-2.59-27.93-7.46-27.93-7.46l-9.54,31.13Z" fill="#f1b2c0" stroke="#002346" stroke-miterlimit="10"></path>
  <path d="M531.86,561.96c-3.46-15-19.56-13.44-32.43-15.51-1.56-.25-3.23-.57-5-.93-5.72,3.56-11.64,22.88-8.12,31.33,4.93,.73,8.12,5.42,8.12,10.56,0,12.29-17,37.42-.3,39s41.22-49.46,37.73-64.45Z" fill="#fff" stroke="#002346" stroke-miterlimit="10"></path>
  <path d="M517.4,548.9c-.97,1.55-1.7,3.24-2.17,5-2.78,10.09,3.13,20.53,13.21,23.34,.54,.16,1.09,.28,1.65,.38,1.86-6.44,2.62-12,1.79-15.61-1.9-8.27-7.6-11.51-14.48-13.11Z" fill="#f69074" stroke="#002346" stroke-miterlimit="10"></path>
  <path d="M487.95,611.43c-2,7.78-1.92,14.18,6.25,14.93,5.17,.47,11.1-4.11,16.71-11.09-9.85-7.43-17.73-6.37-22.96-3.84Z" fill="#f69074" stroke="#002346" stroke-miterlimit="10"></path>
  <path d="M623.68,503.87c-.38-59.59-92.82-63.27-92.82-63.27,0,0-154.17-3.22-214.77,4.29,0,0-110.5,11.26-105.29,67.12,3.29,35.22,105.22,51.22,180.12,58.24-.04,2.45-.69,4.85-1.87,7,0,0,17.47-1,42.87-3.72,22.63,1.46,37.51,1.9,37.51,1.9-.91-1.39-1.1-3.64-.74-6.41,68.09-9.55,155.17-28.85,154.99-65.15Zm-111.26,2.54l-81.95,11.82-114.43-12.27,196.38,.45Z" fill="#fbe493" stroke="#002346" stroke-miterlimit="10"></path>
  <path d="M262.78,366.46s-3.34-26.36,11.7-43.48c5.16-7.34,11.3-2.66,10.27-8.25s-12.9-3.13-15.5-2.13-8.28,5.34-8.28,5.34l-11.12-18.49s-8.26-15.71-12.66-18.12,1,15.1,1,15.1l3.9,7.51c.17,.32-.23,.64-.5,.4-4.55-4.07-19.61-16.95-26.97-16.11-2.55,.48-1.64,2.44-1.64,2.44,0,0-3.87-2.31-4.92,.91-.95,2.92,13.84,19.55,16.57,22.58,.08,.09-.03,.21-.13,.15-3.23-1.85-19.44-10.89-21.61-7.68-1.88,2.78,19.98,21.46,29.73,29.58,2.9,2.41,4.6,5.95,4.69,9.72l.72,30.24,24.75-9.72Z" fill="#f1b2c0" stroke="#002346" stroke-miterlimit="10"></path>
  <path d="M265.75,351.62l4.38,41.45s44.73-56.72,96.09-72.37,100.58-11.92,127.41,3.36c72,39.35,112.33,102.12,107.93,131.13-4.4,29.01-80.49,41.81-80.49,41.81l-21.8-22.91,29-36.19-212.32,7.08,7.05-29.65s-37.62,55-83.44,38.21-12.7-93.36-12.7-93.36l38.89-8.56Z" fill="#f69074" stroke="#002346" stroke-miterlimit="10"></path>
  <polygon points="410.83 297.63 410.83 281 454.83 282.86 454.31 301.13 433.18 318.5 410.83 297.63" fill="#f1b2c0" stroke="#002346" stroke-miterlimit="10"></polygon>
  <polygon points="392.71 314.19 411.45 336.16 433.55 317.82 452.81 336.07 474.39 316.15 454.31 301.13 433.55 317.82 410.83 297.63 392.71 314.19" fill="#fbe493" stroke="#002346" stroke-miterlimit="10"></polygon>
  <path d="M390.36,548.52c4.81,14,5.94,26,1.37,27.6s-13.08-7.93-17.87-21.92-4-26.67,.56-28.24,11.13,8.57,15.94,22.56Z" fill="#f69074" stroke="#002346" stroke-miterlimit="10"></path>
  <path d="M403.68,568.81c-.56,1-13.76,8.2-13.76,8.2,0,0-22.13,3.58-28.15,8.34s-6.3-34.64,2.71-35.85c10.8-1.45,22.69-9.24,29.57-12.91,12.61-6.73,9.63,32.22,9.63,32.22Z" fill="#f1b2c0" stroke="#002346" stroke-miterlimit="10"></path>
  <path d="M379.86,525.52l-5,.33c13.69,1.71,22.17,46.24,13.93,51.4l24.9-2-4.54-52.65-29.29,2.92Z" fill="#f69074" stroke="#002346" stroke-miterlimit="10"></path>
  <line x1="316.03" y1="505.96" x2="278.15" y2="501.44" fill="none" stroke="#002346" stroke-linecap="round" stroke-linejoin="round"></line>
  <line x1="536.86" y1="505.96" x2="402.63" y2="523.25" fill="none" stroke="#002346" stroke-linecap="round" stroke-linejoin="round"></line>
  <path d="M364.49,549.5c-12.64,1.93-24.07-2.79-33.83,1.74-21.45,10-2.31,79,21,79.62s4.1-40.74,10.13-45.51c2.33-1.57,4.9-2.76,7.6-3.53,6.57-8.82-1.83-31.05-4.9-32.32Z" fill="#fff" stroke="#002346" stroke-miterlimit="10"></path>
  <path d="M330.65,551.24c-5.86,2.72-8.68,9.85-9.23,18.79,.86,.12,1.72,.18,2.59,.18,10.49,0,19-8.51,19-19h0c0-.67-.04-1.34-.11-2-4.34-.1-8.42,.26-12.25,2.03Z" fill="#f69074" stroke="#002346" stroke-miterlimit="10"></path>
  <path d="M333.4,616.28c5.15,8.5,11.53,14.39,18.25,14.58,9.44,.26,11.9-6.37,11.9-14.68-5.62-3.58-16.28-7.68-30.15,.1Z" fill="#f69074" stroke="#002346" stroke-miterlimit="10"></path>
  <path d="M706.11,401.17l4.96,2.1-.07-11.32c0-.12-.13-.21-.24-.16l-12.66,5.61,4.5,2.3,1.01,4.58,2.5-3.12Z" fill="#fff" stroke="#002346" stroke-miterlimit="10"></path>
  <path d="M518.07,530.78h-183c-3,0-5.52-2.27-5.82-5.26l-11.79-116c-.32-3.21,2.03-6.08,5.24-6.4,.19-.02,.39-.03,.58-.03h203.45c3.23,0,5.84,2.61,5.85,5.83,0,.15,0,.3-.02,.45l-8.66,116c-.23,3.05-2.77,5.41-5.83,5.41Z" fill="#fff" stroke="#002346" stroke-miterlimit="10"></path>
  <path d="M317.62,411.44c.71-2.52,3-4.26,5.62-4.26h203.49c2.67,0,5,1.81,5.67,4.4l.16-2.24c.24-3.22-2.17-6.02-5.38-6.26-.15-.01-.3-.02-.45-.02h-203.49c-3.23,0-5.85,2.62-5.85,5.85,0,.19,0,.39,.03,.58l.2,1.95Z" fill="#e6e7e8" stroke="#002346" stroke-miterlimit="10"></path>
  <path d="M432.21,469.71c0,5.94-4.82,10.76-10.76,10.76s-10.76-4.82-10.76-10.76c0-5.94,4.82-10.76,10.76-10.76,5.94,0,10.75,4.82,10.76,10.76Z" fill="#e6e7e8" stroke="#002346" stroke-miterlimit="10"></path>
  <rect x="569.01" y="107.7" width="66.31" height="9.37" fill="#e6e7e8" stroke="#002346" stroke-miterlimit="10"></rect>
  <rect x="644.98" y="107.7" width="78.4" height="9.37" fill="#e6e7e8" stroke="#002346" stroke-miterlimit="10"></rect>
  <rect x="569.01" y="129.08" width="46.17" height="9.37" fill="#e6e7e8" stroke="#002346" stroke-miterlimit="10"></rect>
  <rect x="569.01" y="167.85" width="46.17" height="9.37" fill="#e6e7e8" stroke="#002346" stroke-miterlimit="10"></rect>
  <rect x="626.19" y="129.08" width="54.59" height="9.37" fill="#e6e7e8" stroke="#002346" stroke-miterlimit="10"></rect>
  <rect x="687.05" y="129.08" width="36.33" height="9.37" fill="#e6e7e8" stroke="#002346" stroke-miterlimit="10"></rect>
  <rect x="569.01" y="145.19" width="68.14" height="9.37" fill="#e6e7e8" stroke="#002346" stroke-miterlimit="10"></rect>
  <path d="M590.24,81.14c0,5.71-4.62,10.34-10.33,10.35s-10.34-4.62-10.35-10.33c0-5.7,4.6-10.33,10.3-10.35,5.71-.02,10.36,4.59,10.38,10.3,0,.01,0,.02,0,.03Z" fill="#fff" stroke="#002346" stroke-miterlimit="10"></path>
  <polygon points="586.38 77.85 583.6 79.45 583.6 77.82 574.2 77.82 574.2 85.45 583.6 85.45 583.6 83.82 586.38 85.43 586.38 77.85" fill="#e6e7e8" stroke="#002346" stroke-miterlimit="10"></polygon>
  <path d="M617.48,81.14c0,5.71-4.62,10.34-10.33,10.35-5.71,0-10.34-4.62-10.35-10.33,0-5.71,4.62-10.34,10.33-10.35,0,0,.01,0,.02,0,5.71,0,10.33,4.62,10.33,10.33h0Z" fill="#fff" stroke="#002346" stroke-miterlimit="10"></path>
  <path d="M607.14,85.92h0c-1.6,0-2.9-1.3-2.9-2.9h0v-5c0-1.6,1.3-2.9,2.9-2.9h0c1.6,0,2.9,1.3,2.9,2.9h0v5c0,1.6-1.3,2.9-2.9,2.9h0Z" fill="#e6e7e8" stroke="#002346" stroke-miterlimit="10"></path>
  <rect x="627.61" y="73.19" width="92.79" height="16.89" fill="#fff" stroke="#002346" stroke-miterlimit="10"></rect>
  <rect x="569.78" y="359.6" width="152.48" height="13.24" fill="#e6e7e8" stroke="#002346" stroke-miterlimit="10"></rect>
  <path d="M462.49,246.32c-20.81,17.36-57.24-1.32-57.26-1.33,0,0,0,0,0,0,0,0-11.28-10.37-8.71-28.88s18.27-12.53,18.28-12.53c0,0,0,0,0,0,0,0,5.59-14.05,19.34-13.2,11.6,.72,21.1,10.68,30.2,14.97,3.65,1.72,6.16,5.19,6.82,9.16,1.45,8.72,1.81,23.06-8.67,31.8Z" fill="#002346" stroke="#002346" stroke-miterlimit="10"></path>
  <rect x="426.14" y="88.04" width="52" height="87" rx="26" ry="26" fill="#f1b2c0" stroke="#002346" stroke-miterlimit="10"></rect>
  <path d="M476.64,138.54l-2.45-5.25s-1.39-17.24-2.43-19.64c-2.54-5.9-6.58-11.91-12.64-12.92-12.44-2.09-23.36,15.84-35.08,6s-11-23.16-3.2-25.18,12.11,2.36,26.2,3.35,24.26-6.22,34.38-1.76,5.24,19,5.24,19c0,0,8.06-4.12,13.36,8.64s-18.38,29.76-18.38,29.76l-5-2Z" fill="#002346" stroke="#002346" stroke-miterlimit="10"></path>
  <path d="M484.98,136.04c-.75,3.97-3.97,6.7-7.19,6.09s-5.21-4.32-4.46-8.27,3.97-6.7,7.19-6.09,5.21,4.3,4.46,8.27Z" fill="#f1b2c0" stroke="#002346" stroke-miterlimit="10"></path>
  <ellipse cx="403.64" cy="248.58" rx="4.5" ry="6.5" transform="translate(-29.63 56.24) rotate(-7.69)" fill="#f1b2c0" stroke="#002346" stroke-miterlimit="10"></ellipse>
  <ellipse cx="464.64" cy="248.54" rx="6.5" ry="4.5" transform="translate(125.6 651.91) rotate(-78.1)" fill="#f1b2c0" stroke="#002346" stroke-miterlimit="10"></ellipse>
  <rect x="404.14" y="216.04" width="60" height="83" rx="30" ry="30" fill="#f1b2c0" stroke="#002346" stroke-miterlimit="10"></rect>
  <path d="M409.38,244.53c8.01-2.87,22.6-10.5,24.76-28.49,0,0,11,26,30,30l3.78-15-7.75-14.83-20.91-10.85-16.68,2.28s-23.27,7.39-19.54,33.09c.43,2.99,3.5,4.82,6.35,3.81Z" fill="#002346" stroke="#002346" stroke-miterlimit="10"></path>
  <line x1="212.99" y1="290.67" x2="233.38" y2="310.63" fill="none" stroke="#002346" stroke-linecap="round" stroke-linejoin="round"></line>
  <line x1="433.55" y1="317.82" x2="433.55" y2="393.85" fill="none" stroke="#002346" stroke-linecap="round" stroke-linejoin="round"></line>
  <g>
    <path d="M155.58,241.21s11.11-66.88,86.8-66.88,91.7,67.22,91.7,67.22l-178.5-.34Z" fill="#fbe493" stroke="#002346" stroke-miterlimit="10"></path>
    <path d="M296.02,189.16s12.85,22.28,14.98,52.23" fill="none" stroke="#002346" stroke-linecap="round" stroke-linejoin="round"></path>
    <path d="M228.68,178.68l1.07-31.6h31.26s8,38.16-2.59,47.1-23.3-4.11-29.74-15.5Z" fill="#f1b2c0" stroke="#002346" stroke-miterlimit="10"></path>
    <path d="M298.3,210.21s14.77-32.82,18.41-32.75-3.45,22.23-3.45,22.23c0,0,14.83-27.32,18.78-26.57s-9.45,27.72-9.45,27.72c0,0,14-21.19,15.18-18.8s-8.73,26.91-8.73,26.91c0,0,10.82-13.13,13.49-11.05s-16.12,35.59-26.44,37.64-20.37-1.79-26.7-12.16c-2.87-4.7-1.57-8-.8-14.05,.92-7.3-2.26-14,.17-14.7s7.24,4.3,7.61,8.22c.28,2.53,.93,5.01,1.93,7.36Z" fill="#f1b2c0" stroke="#002346" stroke-miterlimit="10"></path>
    <rect x="217.14" y="94.34" width="61" height="86" rx="30.5" ry="30.5" fill="#f1b2c0" stroke="#002346" stroke-miterlimit="10"></rect>
    <g>
      <ellipse cx="206.16" cy="96.13" rx="16.7" ry="16.98" transform="translate(-19.87 70.54) rotate(-18.54)" fill="#002346" stroke="#002346" stroke-miterlimit="10"></ellipse>
      <ellipse cx="218.76" cy="102.86" rx="12.84" ry="13.06" transform="translate(-21.35 74.9) rotate(-18.54)" fill="#f69074" stroke="#002346" stroke-miterlimit="10"></ellipse>
      <path d="M263.46,111.01c-2.49,3.9-8.4,10.55-21.75,16.21,0,0,3.61,8.56-4.56,19.91-2.37,3.29-3.55,7.36-3.13,11.44,.67,6.48,1.42,18.36,14.09,22.15,0,0-6.01,3.57-16.73,3.54,0,0-3.98,8.16-14.12,11.01-4.18,1.17-8.78-.1-11.67-3.42-3.85-4.42-7.82-13.3-7.08-31.07,0,0-4.17-60.35,27.94-71.12,0,0,14.01-7.3,28.92-4.68,15.04,2.65,27.27,16.73,22.35,36.05l-2.63-2.46c-3.03-3.31-3.62-3.97-5.85-7.48-.22-.35-.51-.66-.84-.92h0c-1.61-1.23-3.84-.88-4.93,.82Z" fill="#002346" stroke="#002346" stroke-miterlimit="10"></path>
    </g>
    <ellipse cx="226.14" cy="142.84" rx="7.5" ry="9" fill="#f1b2c0" stroke="#002346" stroke-miterlimit="10"></ellipse>
    <circle cx="226.64" cy="151.84" r="3" fill="#f69074" stroke="#002346" stroke-miterlimit="10"></circle>
    <path d="M187.6,190.64s19.4,.8,21.97,50.75" fill="none" stroke="#002346" stroke-linecap="round" stroke-linejoin="round"></path>
  </g>
  <path d="M396.14,192.03s-9,19.95-9,49.98" fill="none" stroke="#002346" stroke-linecap="round" stroke-linejoin="round"></path>
  <path d="M504.62,182.61s-11.75,25.31-5.62,59.37" fill="none" stroke="#002346" stroke-linecap="round" stroke-linejoin="round"></path>
  <line x1="171.14" y1="382.04" x2="143.14" y2="411.04" fill="none" stroke="#002346" stroke-linecap="round" stroke-linejoin="round"></line>
  <path d="M601.96,79.42v3.61c0,2.86,2.32,5.18,5.18,5.18h0c2.86,0,5.18-2.32,5.18-5.18v-4" fill="none" stroke="#002346" stroke-linecap="round" stroke-linejoin="round"></path>
  <line x1="607.14" y1="88.22" x2="607.14" y2="91.49" fill="none" stroke="#002346" stroke-linecap="round" stroke-linejoin="round"></line>
  <path d="M702.59,399.71l4.64-2.91c.14-.09,.31,.05,.26,.2l-1.38,4.17" fill="#e6e7e8" stroke="#002346" stroke-miterlimit="10"></path>
</svg>
