<?xml version="1.0" standalone="no"?>
<!DOCTYPE svg PUBLIC "-//W3C//DTD SVG 20010904//EN"
 "http://www.w3.org/TR/2001/REC-SVG-20010904/DTD/svg10.dtd">
<svg version="1.0" xmlns="http://www.w3.org/2000/svg"
 width="310.000000pt" height="211.000000pt" viewBox="0 0 310.000000 211.000000"
 preserveAspectRatio="xMidYMid meet">

<g transform="translate(0.000000,211.000000) scale(0.100000,-0.100000)"
fill="#000000" stroke="none">
<path d="M1743 1644 c-21 -21 -25 -32 -20 -65 5 -36 0 -46 -70 -141 -111 -151
-199 -254 -237 -277 -63 -39 -148 -20 -187 42 l-21 32 5 -50 c11 -111 136
-148 248 -72 44 30 127 130 230 277 54 76 91 119 102 120 75 1 113 85 62 135
-33 33 -78 33 -112 -1z m91 -36 c8 -13 6 -22 -7 -36 -21 -23 -54 -18 -62 10
-14 42 45 64 69 26z"/>
<path d="M1520 1540 c-13 -13 -20 -33 -20 -56 0 -31 -11 -50 -72 -121 -80 -95
-106 -115 -144 -115 -25 0 -25 -1 -7 -19 10 -10 30 -21 45 -24 23 -6 35 1 78
41 28 26 74 76 102 111 36 44 58 63 74 63 25 0 64 43 64 70 0 10 -9 29 -21 44
-25 32 -70 35 -99 6z m75 -50 c0 -18 -6 -26 -23 -28 -24 -4 -38 18 -28 44 3 9
15 14 28 12 17 -2 23 -10 23 -28z"/>
<path d="M1774 1442 c-20 -13 -36 -53 -30 -76 4 -17 -10 -44 -55 -107 -84
-116 -135 -167 -194 -195 l-50 -24 48 0 c87 0 144 46 262 213 22 31 47 57 56
57 9 0 28 9 43 21 32 25 36 77 8 102 -19 17 -68 22 -88 9z m66 -57 c0 -27 -26
-40 -46 -24 -19 16 -18 36 3 47 24 14 43 4 43 -23z"/>
<path d="M1180 764 l0 -176 70 4 c56 3 74 8 94 27 34 32 44 86 22 124 -14 26
-14 31 -1 50 31 44 11 109 -42 136 -12 6 -49 11 -82 11 l-61 0 0 -176z m134
94 c16 -26 -4 -52 -43 -56 -30 -3 -31 -2 -31 38 0 40 1 41 31 38 18 -2 37 -11
43 -20z m-6 -130 c7 -7 12 -21 12 -33 0 -29 -19 -45 -52 -45 -27 0 -28 2 -28
45 0 43 1 45 28 45 15 0 33 -5 40 -12z"/>
<path d="M1420 765 l0 -175 30 0 30 0 0 175 0 175 -30 0 -30 0 0 -175z"/>
<path d="M1540 855 l29 -85 -30 -87 c-16 -48 -29 -88 -29 -90 0 -2 13 -3 29
-3 26 0 30 4 46 62 19 68 26 65 46 -14 10 -44 14 -48 40 -48 16 0 29 1 29 3 0
2 -13 43 -30 91 l-29 88 29 81 c17 44 30 82 30 84 0 2 -13 3 -29 3 -26 0 -30
-5 -46 -62 l-18 -63 -20 63 c-17 57 -21 62 -47 62 l-29 0 29 -85z"/>
<path d="M1757 929 c-34 -20 -47 -64 -47 -164 0 -133 24 -175 100 -175 76 0
100 42 100 175 0 134 -24 175 -102 175 -18 0 -41 -5 -51 -11z m87 -65 c8 -20
8 -178 0 -198 -4 -9 -18 -16 -34 -16 -36 0 -40 13 -40 115 0 102 4 115 40 115
16 0 30 -7 34 -16z"/>
</g>
</svg>
